<?xml version="1.0" encoding="utf-8"?>
<!-- Generator: Adobe Illustrator 16.0.0, SVG Export Plug-In . SVG Version: 6.00 Build 0)  -->
<!DOCTYPE svg PUBLIC "-//W3C//DTD SVG 1.1//EN" "http://www.w3.org/Graphics/SVG/1.1/DTD/svg11.dtd">
<svg version="1.1" xmlns="http://www.w3.org/2000/svg" xmlns:xlink="http://www.w3.org/1999/xlink" x="0px" y="0px" width="300px"
	 height="300px" viewBox="0 0 300 300" enable-background="new 0 0 300 300" xml:space="preserve">
<g id="Layer_2">
	<path d="M264.636,19.942H35.365c-7.856,0-14.224,6.367-14.224,14.224v229.271c0,7.854,6.366,14.225,14.224,14.225h123.432v-99.803
		h-33.585v-38.896h33.585v-28.684c0-33.287,20.33-51.413,50.024-51.413c14.225,0,26.45,1.059,30.012,1.533v34.788l-20.596,0.009
		c-16.147,0-19.274,7.674-19.274,18.935v24.832h38.515l-5.016,38.896h-33.499v99.803h65.673c7.854,0,14.223-6.369,14.223-14.225
		V34.166C278.858,26.309,272.49,19.942,264.636,19.942z"/>
</g>
<g id="Layer_1">
</g>
</svg>
