<?xml version="1.0" encoding="utf-8"?>
<!-- Generator: Adobe Illustrator 16.0.0, SVG Export Plug-In . SVG Version: 6.00 Build 0)  -->
<!DOCTYPE svg PUBLIC "-//W3C//DTD SVG 1.1//EN" "http://www.w3.org/Graphics/SVG/1.1/DTD/svg11.dtd">
<svg version="1.1" xmlns="http://www.w3.org/2000/svg" xmlns:xlink="http://www.w3.org/1999/xlink" x="0px" y="0px" width="300px"
	 height="300px" viewBox="0 0 300 300" enable-background="new 0 0 300 300" xml:space="preserve">
<g id="Layer_2">
	<g>
		<path d="M253.189,19.814H46.81c-14.188,0-25.797,11.609-25.797,25.797v206.379c0,14.188,11.608,25.797,25.797,25.797h206.38
			c14.188,0,25.798-11.609,25.798-25.797V45.611C278.987,31.423,267.378,19.814,253.189,19.814z M256.518,227.286
			c0,16.209-12.304,27.342-27.342,27.342H70.826c-15.043,0-27.345-11.133-27.345-27.342V68.932
			c0-16.209,12.302-27.342,27.345-27.342h158.35c15.038,0,27.342,11.133,27.342,27.342V227.286z"/>
		<path d="M198.672,107.399h24.078c5.276,0,9.591-4.317,9.591-9.591V74.851c0-5.278-4.314-9.593-9.591-9.593h-24.078
			c-5.277,0-9.59,4.315-9.59,9.593v22.957C189.082,103.082,193.395,107.399,198.672,107.399z"/>
		<path d="M150.201,189.103c23.629,0,42.788-18.559,42.788-41.458c0-22.897-19.156-41.456-42.788-41.456
			c-23.629,0-42.786,18.559-42.786,41.456C107.415,170.544,126.572,189.103,150.201,189.103z"/>
		<path d="M213.691,131.682c1.774,5.793,2.733,11.928,2.733,18.276c0,35.436-29.652,64.16-66.222,64.16s-66.217-28.725-66.217-64.16
			c0-6.353,0.959-12.486,2.734-18.276H67.156v89.992c0,4.657,3.809,8.47,8.468,8.47h148.353c4.658,0,8.469-3.812,8.469-8.47v-89.992
			h-0.004H213.691z"/>
	</g>
</g>
<g id="Layer_1">
</g>
</svg>
