<?xml version="1.0" encoding="utf-8"?>
<!-- Generator: Adobe Illustrator 16.0.0, SVG Export Plug-In . SVG Version: 6.00 Build 0)  -->
<!DOCTYPE svg PUBLIC "-//W3C//DTD SVG 1.1//EN" "http://www.w3.org/Graphics/SVG/1.1/DTD/svg11.dtd">
<svg version="1.1" xmlns="http://www.w3.org/2000/svg" xmlns:xlink="http://www.w3.org/1999/xlink" x="0px" y="0px" width="300px"
	 height="300px" viewBox="0 0 300 300" enable-background="new 0 0 300 300" xml:space="preserve">
<g id="Layer_2">
	<g>
		<path id="LinkedIn__x28_alt_x29_" d="M260.982,18.743H39.296c-10.616,0-19.22,8.341-19.22,18.637v222.834
			c0,10.296,8.607,18.645,19.22,18.645h221.687c10.613,0,19.207-8.354,19.207-18.645V37.38
			C280.189,27.087,271.596,18.743,260.982,18.743z M98.936,236.478H59.634V119.039h39.302V236.478z M79.288,102.995h-0.264
			c-13.18,0-21.723-9.013-21.723-20.297c0-11.512,8.794-20.281,22.234-20.281c13.441,0,21.711,8.767,21.972,20.281
			C101.508,93.984,92.981,102.995,79.288,102.995z M240.604,236.478h-39.288v-62.833c0-15.788-5.693-26.562-19.901-26.562
			c-10.869,0-17.321,7.268-20.154,14.285c-1.051,2.506-1.311,6.011-1.311,9.511v65.597h-39.281c0,0,0.515-106.424,0-117.438h39.287
			v16.649c5.216-8,14.536-19.413,35.399-19.413c25.859,0,45.249,16.775,45.249,52.864V236.478L240.604,236.478z M159.702,136.06
			c0.067-0.11,0.161-0.243,0.254-0.371v0.371H159.702z"/>
	</g>
</g>
<g id="Layer_1">
</g>
</svg>
