<?xml version="1.0" encoding="utf-8"?>
<!-- Generator: Adobe Illustrator 16.0.0, SVG Export Plug-In . SVG Version: 6.00 Build 0)  -->
<!DOCTYPE svg PUBLIC "-//W3C//DTD SVG 1.1//EN" "http://www.w3.org/Graphics/SVG/1.1/DTD/svg11.dtd">
<svg version="1.1" xmlns="http://www.w3.org/2000/svg" xmlns:xlink="http://www.w3.org/1999/xlink" x="0px" y="0px" width="300px"
	 height="300px" viewBox="0 0 300 300" enable-background="new 0 0 300 300" xml:space="preserve">
<g id="Layer_2">
	<g>
		<g id="post-twitter_1_">
			<path d="M254.19,19.814H47.811c-14.188,0-25.797,11.609-25.797,25.797v206.379c0,14.188,11.608,25.797,25.797,25.797h206.38
				c14.188,0,25.798-11.609,25.798-25.797V45.611C279.988,31.423,268.379,19.814,254.19,19.814z M224.523,113.974
				c-1.289,59.334-38.696,100.61-95.45,103.19c-23.218,1.29-39.986-6.449-55.465-15.479c16.769,2.581,38.696-3.87,50.306-14.188
				c-16.769-1.29-27.087-10.319-32.247-24.508c5.16,1.29,10.318,0,14.188,0c-15.479-5.16-25.798-14.188-27.088-34.826
				c3.87,2.579,9.029,3.869,14.189,3.869c-11.609-6.449-19.349-30.957-10.319-46.435c16.768,18.058,37.406,33.537,70.943,36.116
				c-9.03-36.116,39.986-55.465,59.334-30.957c9.029-1.29,15.479-5.159,21.928-7.739c-2.579,9.029-7.739,14.188-14.188,19.348
				c6.449-1.29,12.899-2.58,18.059-5.16C237.422,103.656,230.973,108.815,224.523,113.974z"/>
		</g>
	</g>
</g>
<g id="Layer_1">
</g>
</svg>
